<svg xmlns="http://www.w3.org/2000/svg" width="46" height="28" viewBox="0 0 46 28">
    <path fill="none" fill-rule="evenodd" stroke="#757575" stroke-linecap="round" stroke-linejoin="round" stroke-width="3" d="M30.413 8.112A8.895 8.895 0 0 1 33.4 7.095c2.607-.394 4.993.167 7.099 1.752a9.336 9.336 0 0 1 1.025 14.112c-1.794 1.813-4.007 2.76-6.57 2.764-9.416.014-18.833.005-28.25.005-1.658 0-3.03-.611-4.027-1.951-1.963-2.636-.742-6.413 2.388-7.411a.634.634 0 0 0 .426-.37c1.051-2.206 2.785-3.53 5.19-3.967.187-.034.287-.077.304-.306a10.168 10.168 0 0 1 8.31-9.284 10.215 10.215 0 0 1 10.893 5.264c.068.128.14.255.225.41z"/>
</svg>
