<svg xmlns="http://www.w3.org/2000/svg" width="38" height="36" viewBox="0 0 38 36">
    <path fill="none" fill-rule="evenodd" stroke="#757575" stroke-width="3" d="M35.621 8.35c-.025-3.458-2.448-5.893-5.865-5.9-7.175-.015-14.35-.014-21.524.01-.688.002-1.414.1-2.057.334-2.435.881-3.806 2.915-3.811 5.545-.008 3.684-.005 7.367.002 11.05 0 .398.025.8.094 1.19.495 2.802 2.8 4.723 5.697 4.737 2.928.014 5.856.003 8.783.003h.469v5.106h-.549c-1.415.005-2.832-.014-4.246.025-.804.022-1.384.69-1.403 1.499-.02.826.514 1.467 1.32 1.575.19.025.383.034.574.034 3.931.002 7.862.003 11.793 0 .22 0 .442-.01.657-.048a1.48 1.48 0 0 0 1.21-1.332c.092-.988-.56-1.731-1.578-1.746-1.374-.02-2.748-.006-4.123-.007h-.475v-5.106h.525c2.845 0 5.69.006 8.535-.005.479-.002.968-.024 1.433-.126 2.726-.596 4.518-2.829 4.539-5.706.026-3.71.027-7.422 0-11.133z"/>
</svg>
