<svg xmlns="http://www.w3.org/2000/svg" width="38" height="38" viewBox="0 0 38 38">
    <path fill="none" fill-rule="evenodd" stroke="#757575" stroke-linecap="round" stroke-linejoin="round" stroke-width="3" d="M35.866 2.18c-.05 4.86-1.06 9.42-3.997 13.421-1.67 2.276-3.76 4.065-6.096 5.616-2.334 1.55-4.632 3.154-6.936 4.75-.126.087-.213.306-.224.47-.135 1.994-.249 3.99-.38 5.984-.01.152-.06.34-.162.443-1.068 1.088-2.15 2.162-3.23 3.24-.034.034-.079.058-.166.121l-2.13-5.993c-1.572.857-3.087.823-4.337-.476-1.203-1.251-1.207-2.726-.336-4.25l-5.994-2.15c.104-.123.17-.21.246-.288 1.005-1.007 2.006-2.018 3.023-3.012a.907.907 0 0 1 .527-.236c1.981-.14 3.963-.268 5.946-.374.31-.017.483-.14.645-.377 1.814-2.666 3.592-5.358 5.462-7.984 3.646-5.116 8.612-8.017 14.874-8.66 1.07-.11 2.145-.175 3.218-.26.021-.001.044.014.047.015z"/>
</svg>
